<svg xmlns="http://www.w3.org/2000/svg" viewBox="0 0 64 64" role="img" aria-label="ALG note">
  <rect width="64" height="64" rx="14" fill="#fbf8ff"/>

  <g stroke="#22222b" stroke-linecap="round" stroke-linejoin="round">
    <path d="M18.5 8.5h24l7 7v39.5h-31Z" fill="#ffffff" stroke-width="2"/>
    <path d="M42.5 8.5v9h7" fill="#e3d9ff" stroke-width="2"/>
    <path d="M24.5 18.5h11.5" fill="none" stroke-width="1.45"/>
    <path d="M24.5 24.5h18" fill="none" stroke-width="1.45"/>
  </g>

  <g stroke="#22222b" stroke-linecap="round" stroke-linejoin="round">
    <path d="M30 25 43 32.5v14L30 54 17 46.5v-14Z" fill="#b9a8f3" stroke-width="1.9"/>
    <path d="M17 32.5 30 40l13-7.5" fill="none" stroke-width="1.65"/>
    <path d="M30 40v14" fill="none" stroke-width="1.65"/>

    <path d="M21.3 35 34.3 27.5" fill="none" stroke-width=".8"/>
    <path d="M25.7 37.5 38.7 30" fill="none" stroke-width=".8"/>
    <path d="M21.3 30 34.3 37.5" fill="none" stroke-width=".8"/>
    <path d="M25.7 27.5 38.7 35" fill="none" stroke-width=".8"/>

    <path d="M21.3 35v14" fill="none" stroke-width=".8"/>
    <path d="M25.7 37.5v14" fill="none" stroke-width=".8"/>
    <path d="M17 37.2 30 44.7" fill="none" stroke-width=".8"/>
    <path d="M17 41.8 30 49.3" fill="none" stroke-width=".8"/>

    <path d="M34.3 37.5v14" fill="none" stroke-width=".8"/>
    <path d="M38.7 35v14" fill="none" stroke-width=".8"/>
    <path d="M30 44.7 43 37.2" fill="none" stroke-width=".8"/>
    <path d="M30 49.3 43 41.8" fill="none" stroke-width=".8"/>
  </g>

  <g stroke="#22222b" stroke-linecap="round" stroke-linejoin="round">
    <path d="M39 47.5 53 33.5" fill="none" stroke-width="3.2"/>
    <path d="M39 47.5 53 33.5" fill="none" stroke="#fffdf8" stroke-width="1.55"/>
    <path d="M52.6 28.4 57 32.8 53 34.2 50.8 32Z" fill="#d8ccff" stroke-width="1.8"/>
    <path d="M57 32.8 59 34.8 53 36.8 53 34.2Z" fill="#22222b" stroke-width="1.4"/>
    <path d="M35.7 50.8 39 47.5 41.2 49.7 38 53Z" fill="#f0e9ff" stroke-width="1.6"/>
  </g>
</svg>
